<?xml version="1.0" encoding="UTF-8"?>
<!DOCTYPE svg PUBLIC "-//W3C//DTD SVG 1.0//EN" "http://www.w3.org/TR/2001/REC-SVG-20010904/DTD/svg10.dtd">
<!-- Creator: CorelDRAW -->
<svg xmlns="http://www.w3.org/2000/svg" xml:space="preserve" width="180.622mm" height="179.525mm" version="1.0" style="shape-rendering:geometricPrecision; text-rendering:geometricPrecision; image-rendering:optimizeQuality; fill-rule:evenodd; clip-rule:evenodd"
viewBox="0 0 3454.96 3433.98"
 xmlns:xlink="http://www.w3.org/1999/xlink"
 xmlns:xodm="http://www.corel.com/coreldraw/odm/2003">
 <defs>
  <style type="text/css">
   <![CDATA[
    .fil0 {fill:none;fill-rule:nonzero}
    .fil1 {fill:#FEFEFE;fill-rule:nonzero}
   ]]>
  </style>
 </defs>
 <g id="Camada_x0020_1">
  <metadata id="CorelCorpID_0Corel-Layer"/>
  <g id="_2415124400640">
   <path class="fil0" d="M1997.4 3433.77l0 -1203.57c0,-1.89 1.55,-3.37 3.44,-3.37l396.04 0c1.69,0 3.17,-1.28 3.44,-2.97l75.85 -494.69c0.14,-0.88 -0.54,-1.69 -1.42,-1.69l-473.98 0c-1.82,0 -3.31,-1.48 -3.31,-3.31 -0.2,-109.65 -0.07,-219.38 0.34,-329.03 0.61,-167.62 109.79,-260.61 274.57,-261.21 73.55,-0.27 146.7,-0.34 219.45,-0.27 2.7,0 4.93,-2.23 4.93,-4.93l0 -416.62c0,-2.09 -1.01,-3.24 -3.04,-3.58 -115.46,-18.96 -240.97,-30.09 -376.54,-33.4 -120.11,-2.83 -230.64,19.77 -331.66,67.82 -232.06,110.53 -327.61,351.77 -327.82,598.21 -0.14,127.47 -0.2,253.99 -0.2,379.71 0,3.64 -2.97,6.61 -6.61,6.61l-430.25 0c-0.94,0 -1.69,0.74 -1.69,1.69l0 490.92c0,3.71 3.04,6.75 6.75,6.75l426.88 0c2.7,0 4.93,2.23 4.93,4.93l0 1202.22"/>
   <path class="fil1" d="M1693.94 0l69.17 0c351.3,10.26 668.86,113.91 952.68,310.88 455.15,316.01 725.41,830.41 739.17,1383.47l0 70.85c-22.07,838.44 -631.2,1535.57 -1457.56,1668.57l0 -1203.57c0,-1.89 1.55,-3.37 3.44,-3.37l396.04 0c1.69,0 3.17,-1.28 3.44,-2.97l75.85 -494.69c0.14,-0.88 -0.54,-1.69 -1.42,-1.69l-473.98 0c-1.82,0 -3.31,-1.48 -3.31,-3.31 -0.2,-109.65 -0.07,-219.38 0.34,-329.03 0.61,-167.62 109.79,-260.61 274.57,-261.21 73.55,-0.27 146.7,-0.34 219.45,-0.27 2.7,0 4.93,-2.23 4.93,-4.93l0 -416.62c0,-2.09 -1.01,-3.24 -3.04,-3.58 -115.46,-18.96 -240.97,-30.09 -376.54,-33.4 -120.11,-2.83 -230.64,19.77 -331.66,67.82 -232.06,110.53 -327.61,351.77 -327.82,598.21 -0.14,127.47 -0.2,253.99 -0.2,379.71 0,3.64 -2.97,6.61 -6.61,6.61l-430.25 0c-0.94,0 -1.69,0.74 -1.69,1.69l0 490.92c0,3.71 3.04,6.75 6.75,6.75l426.88 0c2.7,0 4.93,2.23 4.93,4.93l0 1202.22c-827.91,-135.16 -1434.21,-828.92 -1457.5,-1668.3l0 -73.89c13.97,-431.53 162.09,-805.17 444.35,-1120.97 315.54,-352.99 770.62,-559.41 1249.59,-570.81z"/>
  </g>
 </g>
</svg>
