<?xml version="1.0" encoding="UTF-8"?>
<!DOCTYPE svg PUBLIC "-//W3C//DTD SVG 1.0//EN" "http://www.w3.org/TR/2001/REC-SVG-20010904/DTD/svg10.dtd">
<!-- Creator: CorelDRAW -->
<svg xmlns="http://www.w3.org/2000/svg" xml:space="preserve" width="180.622mm" height="180.622mm" version="1.0" style="shape-rendering:geometricPrecision; text-rendering:geometricPrecision; image-rendering:optimizeQuality; fill-rule:evenodd; clip-rule:evenodd"
viewBox="0 0 7455.99 7455.99"
 xmlns:xlink="http://www.w3.org/1999/xlink"
 xmlns:xodm="http://www.corel.com/coreldraw/odm/2003">
 <defs>
  <style type="text/css">
   <![CDATA[
    .fil0 {fill:#FEFEFE;fill-rule:nonzero}
   ]]>
  </style>
 </defs>
 <g id="Camada_x0020_1">
  <metadata id="CorelCorpID_0Corel-Layer"/>
  <g id="_2379974982016">
   <path class="fil0" d="M3619.51 0l218.29 0c1016.17,34.37 1974.82,474.45 2647.02,1218.59 609.73,674.82 933.45,1475.32 971.17,2401.5l0 217.86c-35.38,1021.99 -480.27,1985.89 -1232.13,2658.82 -673.52,603.04 -1470.23,922.68 -2390.14,959.23l-212.76 0c-1021.41,-34.66 -1982.68,-476.77 -2656.64,-1226.6 -604.63,-672.64 -926.03,-1469.06 -964.33,-2389.27l0 -226.74c39.03,-922.24 362.17,-1719.83 969.42,-2393.05 672.5,-745.6 1633.18,-1185.68 2650.08,-1220.34zm-1818.56 5329.29c222.52,344.55 592.55,503.57 995.05,524.69 404.84,21.26 816.08,17.33 1256.02,16.46 215.09,-0.44 429.74,-7.43 644.24,-21.26 680.22,-43.98 1120.44,-493.81 1155.83,-1174.61 27.38,-527.89 20.09,-1062.48 11.65,-1590.95 -1.75,-110.53 -6.55,-221.06 -14.41,-331.3 -25.63,-358.24 -167.33,-699.87 -467.02,-915.98 -273.92,-197.76 -592.7,-236.21 -918.89,-242.03 -473.28,-8.3 -946.56,-8.45 -1419.84,-0.44 -292.27,5.1 -580.9,21.99 -844.48,164.41 -373.39,201.98 -561.53,570.85 -591.68,986.75 -9.32,126.98 -14.71,236.2 -16.02,327.66 -5.54,373.53 -5.83,786.08 -1.02,1237.81 3.79,350.67 13.11,712.83 210.57,1018.79z"/>
   <path class="fil0" d="M5389.28 5006.73c-149.7,334.94 -439.79,449.11 -791.18,464.25 -499.2,21.55 -1003.94,14.85 -1503.58,7.57 -139.36,-2.04 -259.5,-8.01 -360.42,-17.77 -434.98,-42.23 -693.32,-315.13 -738.75,-738.9 -12.38,-115.77 -19.37,-267.37 -20.83,-455.08 -2.77,-368.87 -2.47,-737.88 1.17,-1106.75 3.49,-359.84 -0.15,-751.28 302.03,-992.73 222.08,-177.52 514.49,-184.21 784.04,-188.73 530.51,-9.03 1068.45,-18.64 1598.09,11.5 168.49,9.61 350.67,55.05 487.11,152.91 314.55,225.86 325.47,590.65 330.57,944.23 5.68,405.27 6.56,810.69 2.48,1215.97 -2.62,255.72 -1.31,503.57 -90.72,703.51zm-261.98 -2421.45c0,-141.84 -114.9,-256.74 -256.73,-256.74 -141.84,0 -256.74,114.9 -256.74,256.74 0,141.84 114.9,256.74 256.74,256.74 141.84,0 256.73,-114.9 256.73,-256.74zm-300.13 1142.57c0,-607.11 -492.07,-1099.18 -1099.18,-1099.18 -607.11,0 -1099.18,492.07 -1099.18,1099.18 0,607.11 492.07,1099.17 1099.18,1099.17 607.11,0 1099.18,-492.06 1099.18,-1099.17z"/>
   <path class="fil0" d="M4441.12 3728c0,393.91 -319.21,713.12 -713.12,713.12 -393.91,0 -713.12,-319.21 -713.12,-713.12 0,-393.92 319.21,-713.12 713.12,-713.12 393.92,0 713.12,319.21 713.12,713.12z"/>
  </g>
 </g>
</svg>
