<?xml version="1.0" encoding="UTF-8"?>
<!DOCTYPE svg PUBLIC "-//W3C//DTD SVG 1.0//EN" "http://www.w3.org/TR/2001/REC-SVG-20010904/DTD/svg10.dtd">
<!-- Creator: CorelDRAW -->
<svg xmlns="http://www.w3.org/2000/svg" xml:space="preserve" width="233.62mm" height="62.4124mm" version="1.0" style="shape-rendering:geometricPrecision; text-rendering:geometricPrecision; image-rendering:optimizeQuality; fill-rule:evenodd; clip-rule:evenodd"
viewBox="0 0 23472.02 6270.63"
 xmlns:xlink="http://www.w3.org/1999/xlink"
 xmlns:xodm="http://www.corel.com/coreldraw/odm/2003">
 <defs>
  <style type="text/css">
   <![CDATA[
    .fil1 {fill:#373435;fill-rule:nonzero}
    .fil0 {fill:#037CA9;fill-rule:nonzero}
   ]]>
  </style>
 </defs>
 <g id="Camada_x0020_1">
  <metadata id="CorelCorpID_0Corel-Layer"/>
  <path class="fil0" d="M8319.44 1132.8c-12.5,7.44 -12.5,14.89 0,22.06l803.5 462.23c10.64,6.11 23.4,6.9 34.56,1.86 192.17,-87.19 388.06,-174.63 587.94,-262.35 259.96,-114.29 616.65,-236.56 892.82,-215.82 104.46,7.71 196.43,53.69 276.44,137.69 5.85,6.11 8.5,14.35 7.43,22.59 -30.29,250.92 -234.69,398.7 -437.23,512.46 -256.23,144.33 -474.18,251.71 -653.6,322.41 -157.88,62.2 -274.57,110.04 -350.05,143.26 -64.32,28.7 -79.47,76.29 -94.62,138.48 -64.59,263.68 -128.38,528.15 -191.64,793.41 -2.92,11.97 8.77,22.06 20.19,18.07 143.27,-51.3 357.77,-118.27 402.16,99.94 17.28,84.26 -9.84,148.05 -80.8,191.38 -142.74,87.45 -289.99,167.99 -441.76,241.87 -15.94,7.71 -26.04,20.47 -30.3,37.75l-107.64 441.22c-3.72,15.42 11.16,28.44 26.05,23.13 133.7,-48.91 321.35,-143.53 400.82,44.92 62.46,147.78 1.06,202.27 -127.06,270.58 -133.16,70.97 -265.52,143.53 -397.1,217.69 -7.43,4.25 -12.75,11.43 -14.35,19.67 -21,104.98 -42.79,208.38 -65.39,310.72 -72.83,328.26 -262.08,555.78 -568.01,683.09 -27.64,11.43 -57.94,-8.77 -57.94,-38.54 -0.79,-747.68 -10.1,-1495.37 -27.38,-2243.33 -3.18,-136.62 -20.73,-267.12 -54.22,-387.54 -46.25,-165.59 -272.71,-140.08 -397.63,-99.67 -481.36,154.96 -951.29,324 -1409.79,507.14 -19.14,7.71 -32.95,24.45 -36.68,44.39l-172.5 910.89c-1.6,9.3 -7.17,17.54 -15.41,22.32l-441.76 270.06c-12.76,7.71 -19.4,4.25 -19.93,-10.9l-31.9 -1059.74c-0.26,-12.23 -6.64,-17.8 -18.87,-17.01l-292.11 18.61c-13.03,0.79 -21.53,-13.02 -14.89,-24.18 54.76,-92.23 127.59,-166.92 218.48,-223.81 5.32,-3.46 6.38,-10.89 1.87,-15.41l-723.77 -731.21c-21.53,-21.8 -11.69,-58.47 17.81,-66.45l456.37 -121.73c13.82,-3.46 28.44,-1.6 40.67,5.85 266.59,160.8 515.38,365.73 793.4,502.89 8.25,3.99 16.75,4.25 25.26,0.53 484.28,-216.09 956.07,-454.78 1415.64,-716.07 228.58,-129.97 136.35,-363.07 -12.23,-510.33 -537.71,-532.39 -1075.95,-1063.99 -1614.72,-1595.31 -30.83,-30.57 -65.39,-72.57 -103.67,-126.26 -5.31,-7.17 -3.72,-12.75 4.52,-16.21 441.49,-188.72 798.19,-63.8 1157.82,216.09 10.89,8.5 25.25,10.89 38.27,6.38 148.05,-51.57 297.97,-101 450,-148.59 69.38,-21.53 122.53,-28.44 160.01,-20.19 118.01,26.04 186.86,182.87 124.39,286.26 -42,69.1 -160.54,127.85 -238.42,174.1 -8.51,5.05 -8.77,17.54 -0.27,23.13 93.3,61.4 189.25,120.4 288.13,177.02 65.65,37.74 91.7,57.15 171.17,35.88 144.06,-38.8 422.35,-189.25 566.68,-118.81 95.95,46.78 164.26,190.31 76.29,281.74 -57.94,60.33 -145.39,88.24 -215.03,129.71z"/>
  <path class="fil0" d="M3153.66 2543.65c1.86,-7.17 -5.86,-12.76 -11.97,-9.03 -422.35,255.96 -804.04,558.97 -1145.32,909.02 -280.41,287.33 -608.41,829.82 3.72,1021.2 301.95,94.36 718.19,48.38 1067.44,-6.91 648.28,-102.33 1304.54,-306.99 1916.94,-541.16 7.17,-2.92 14.62,-2.92 21.79,0l263.94 99.41c8.77,3.46 13.82,9.84 14.88,19.4l6.38 65.39c1.34,11.96 -3.72,19.93 -14.88,24.45l-1136.82 438.83c-4.78,1.87 -6.38,7.44 -3.46,11.43 877.66,1232.5 2551.39,1457.1 3726.49,487.2 10.36,-8.5 15.41,-6.11 15.67,7.18l13.29 699.84c0.27,9.84 -3.99,17.28 -12.23,22.32 -1210.17,746.63 -2702.63,607.35 -3763.42,-334.11 -86.12,-76.29 -195.9,-190.84 -329.32,-344.2 -5.85,-6.65 -15.15,-9.3 -23.66,-6.65 -876.6,276.16 -1789.08,468.87 -2701.82,434.05 -345.01,-13.29 -817.07,-78.95 -1019.6,-373.45 -46.52,-67.78 -54.22,-145.13 -22.6,-231.78 3.72,-10.37 8.77,-10.9 14.88,-2.13 31.11,44.92 52.1,103.67 86.92,139.54 98.08,100.47 215.03,165.86 350.85,196.43 206.26,46.25 427.13,72.03 648.55,68.57 852.94,-13.29 1686.49,-158.41 2501.15,-435.64 4.78,-1.6 6.9,-7.44 3.98,-11.69l-88.24 -134.23c-2.65,-3.72 -7.17,-5.58 -11.42,-4.25 -386.21,117.22 -826.1,223.01 -1319.42,316.84 -416.76,79.2 -1436.63,193.23 -1701.64,-222.74 -368.92,-578.37 767.89,-1479.42 1161.27,-1766.49 520.17,-379.29 1042.2,-709.14 1566.34,-989.83 29.24,-15.68 54.22,-48.38 74.96,-97.81 405.34,-963.52 1108.64,-1592.67 2109.9,-1887.43 10.63,-3.19 22.05,0.53 29.24,9.03l404.01 501.82c5.58,6.65 1.59,17.02 -6.91,18.07 -903.98,132.63 -1683.83,775.07 -1995.88,1628.54 -188.71,515.92 -206.53,1051.23 -53.69,1605.69 4.52,15.68 14.62,21.79 30.56,18.34 389.13,-84.25 768.42,-200.15 1137.88,-347.93 5.31,-2.12 10.9,2.66 9.84,8.24l-35.62 215.3c-0.8,5.59 -3.99,9.3 -9.04,11.43 -626.49,266.06 -1263.33,454.51 -1910.02,565.61 -86.37,14.89 -179.41,24.45 -279.08,28.7 -253.84,10.64 -441.76,17.54 -656.79,-69.9 -394.98,-160.81 -153.63,-583.16 33.49,-789.16 291.32,-320.55 629.15,-576.77 988.5,-810.94 7.44,-4.79 12.76,-12.23 14.88,-20.74l35.09 -133.7zm24.44 1401.02c-69.37,-280.95 -104.45,-565.88 -105.51,-855.33 0,-10.11 -12.23,-15.15 -19.41,-8.24 -125.45,119.07 -348.19,355.1 -374.51,520.43 -45.71,289.19 283.61,353.51 492,352.44 4.78,0 8.5,-4.51 7.43,-9.3z"/>
  <path class="fil1" d="M20368.04 2039.44l-334.11 274.83c-2.66,2.13 -6.12,3.46 -9.57,3.46l-175.42 0.27c-12.49,0 -19.67,-14.62 -11.69,-24.73l219.28 -275.1c2.92,-3.72 7.18,-5.85 11.69,-5.85l290.25 0.27c14.36,0 20.74,17.8 9.57,26.85z"/>
  <path class="fil1" d="M14515.97 3255.2l-216.09 0c-13.03,0 -23.39,-10.37 -23.39,-23.39l0 -194.3c0,-14.62 7.17,-22.06 21.79,-22.06l499.96 0.27c9.03,0 13.55,4.51 13.55,13.55l0.27 670.34c0,7.97 -3.73,13.28 -11.43,15.68 -559.76,185.79 -1109.7,67.78 -1098.54,-638.99 9.84,-622.23 606.81,-801.11 1102.53,-590.86 3.72,1.33 5.58,5.85 3.99,9.56l-88.78 215.03c-1.86,4.78 -5.31,6.12 -9.84,3.73 -478.7,-230.98 -806.96,102.86 -685.75,586.08 60.33,240.55 278.82,287.6 493.84,232.31 9.3,-2.39 14.09,-8.24 14.09,-18.07l0.27 -242.15c0,-9.3 -7.44,-16.74 -16.48,-16.74z"/>
  <path class="fil1" d="M21674.69 2729.72c-262.07,-145.39 -565.61,-125.99 -616.65,226.72 -74.42,514.58 172.24,713.13 660.24,524.69 4.78,-1.87 10.1,1.59 10.1,6.9l1.34 225.4c0,4.26 -2.66,7.98 -6.38,9.3 -236.3,91.97 -573.33,111.37 -776.13,-68.84 -183.67,-162.93 -232.05,-494.38 -185.27,-725.09 103.67,-510.33 555.79,-630.48 1008.71,-435.38 5.85,2.39 7.71,6.65 5.31,12.23l-89.58 219.82c-1.86,4.78 -7.43,6.64 -11.69,4.25z"/>
  <path class="fil1" d="M19743.15 3457.47l-94.62 307c-1.06,3.72 -4.52,6.11 -8.24,6.11l-290.78 0.53c-6.12,0 -10.37,-6.11 -8.51,-11.69l470.73 -1338.55c1.33,-3.46 4.52,-5.85 8.51,-5.85l337.56 1.86c3.72,0 6.91,2.39 8.24,5.85l472.05 1337.23c2.13,5.59 -2.12,11.69 -8.24,11.69l-291.58 -0.26c-3.99,0 -7.44,-2.66 -8.51,-6.38l-92.23 -307.26c-1.05,-3.73 -4.51,-6.38 -8.5,-6.38l-477.64 0c-3.73,0 -7.17,2.39 -8.24,6.11zm78.41 -258.35c-1.6,5.85 2.66,11.69 8.77,11.42l324.01 -1.06c6.11,0 10.37,-5.85 8.5,-11.69l-163.73 -531.32c-2.65,-8.51 -14.62,-8.51 -17.28,0l-160.27 532.66z"/>
  <path class="fil1" d="M11053.16 3472.09c95.16,-349.79 201.74,-696.12 319.75,-1039 2.92,-8.24 8.51,-12.5 17.28,-12.23l257.02 1.06c7.98,0 13.55,7.71 10.9,15.15l-449.47 1324.2c-2.13,6.38 -6.64,9.57 -13.29,9.57l-284.4 0c-12.76,0 -21.26,-5.85 -25.25,-17.81l-447.6 -1317.02c-2.4,-6.91 2.92,-14.09 10.1,-14.09l263.13 0c9.84,0 15.95,4.78 18.88,14.09l319.49 1036.35c1.33,3.72 2.39,3.72 3.46,-0.27z"/>
  <path class="fil1" d="M12119.27 3761.01c0,5.58 -4.51,10.1 -10.1,10.1l-266.33 0c-5.58,0 -10.1,-4.52 -10.1,-10.1l0 -1329.52c0,-5.58 4.52,-10.1 10.1,-10.1l266.33 0c5.59,0 10.1,4.52 10.1,10.1l0 1329.52z"/>
  <path class="fil1" d="M12695.79 3457.47l-91.17 307.53c-1.06,3.72 -4.52,6.11 -8.25,6.11l-292.11 0c-5.85,0 -9.84,-5.85 -7.97,-11.42l470.46 -1336.43c1.33,-3.18 4.52,-5.59 8.24,-5.59l338.63 -0.26c3.73,0 6.91,2.39 8.24,5.59l472.06 1337.22c1.86,5.59 -2.13,11.43 -7.98,11.43l-291.04 -0.79c-3.73,0 -7.18,-2.39 -8.24,-5.85l-95.16 -307.79c-1.06,-3.73 -4.52,-6.12 -8.25,-6.12l-479.23 0.27c-3.73,0 -7.17,2.39 -8.24,6.11zm80.27 -259.42c-1.86,5.85 2.39,11.69 8.51,11.69l323.74 -0.53c6.12,0 10.37,-5.85 8.77,-11.69l-162.93 -530c-2.65,-8.5 -14.62,-8.5 -17.27,0.27l-160.81 530.27z"/>
  <path class="fil1" d="M15432.18 3534.29l467.53 0c6.91,0 12.5,5.58 12.5,12.49l1.86 211.57c0,6.91 -5.59,12.5 -12.5,12.5l-758.31 0c-6.91,0 -12.5,-5.59 -12.5,-12.5l0 -1323.94c0,-6.91 5.59,-12.49 12.5,-12.49l756.73 1.59c6.9,0 12.49,5.59 12.49,12.5l1.86 208.65c0,6.91 -5.58,12.5 -12.49,12.5l-470.73 0c-6.91,0 -12.5,5.58 -12.5,12.49l0.27 270.85c0,6.91 5.58,12.49 12.49,12.49l433.78 -0.53c6.91,0 12.49,5.59 12.49,12.5l1.34 211.57c0,6.91 -5.59,12.49 -12.5,12.49l-436.17 -0.26c-6.9,0 -12.49,5.58 -12.49,12.49l1.86 320.55c0,6.91 5.59,12.5 12.5,12.5z"/>
  <path class="fil1" d="M16443.27 2731.31c-0.26,-1.34 -1.6,-2.13 -2.92,-1.87 -1.33,0.27 -2.13,1.34 -2.13,2.66l12.5 1032.36c0,4.78 -2.39,7.17 -6.91,7.17l-245.33 -0.26c-4.52,0 -8.24,-3.73 -8.24,-8.25l0.26 -1327.12c0,-8.24 6.64,-14.89 14.89,-14.89l359.35 0.53c10.37,0 17.28,5.05 20.47,15.15l306.73 991.17c3.46,10.89 18.88,10.89 22.33,0l324 -990.89c3.19,-9.57 12.23,-16.22 22.6,-16.22l360.42 1.33c9.57,0.27 14.36,5.05 14.36,14.62l0 1319.15c0,10.37 -5.31,15.68 -15.68,15.68l-237.62 0.27c-13.02,0 -19.67,-6.38 -19.4,-19.41l12.49 -1026.77c0,-1.6 -1.06,-2.66 -2.39,-2.92 -1.6,-0.26 -2.92,0.53 -3.46,1.86l-339.95 1033.42c-2.66,8.24 -8.51,12.49 -17.28,12.49l-235.76 1.6c-10.37,0 -17.01,-4.78 -19.93,-14.62l-313.38 -1026.24z"/>
  <path class="fil1" d="M18748 2666.98l3.18 327.74c0,5.58 4.25,9.83 9.84,9.83l436.71 0.27c5.58,0 9.84,4.25 9.84,9.84l1.33 213.96c0,5.31 -4.52,9.84 -9.84,9.84l-440.7 0.26c-5.31,0 -9.83,4.52 -9.83,9.84l0.79 512.46c0,5.31 -4.52,9.84 -9.84,9.84l-263.14 0c-5.31,0 -9.83,-4.52 -9.83,-9.84l-0.27 -1328.99c0,-5.31 4.52,-9.84 9.84,-9.84l754.06 -1.33c5.59,0 9.84,4.25 9.84,9.84l2.92 216.89c0,5.31 -4.52,9.84 -9.84,9.84l-475.25 -0.26c-5.31,0 -9.83,4.51 -9.83,9.83z"/>
  <path class="fil1" d="M22306.49 3757.02c0,7.98 -6.64,14.62 -14.62,14.62l-262.08 0c-7.97,0 -14.62,-6.64 -14.62,-14.62l0 -1320.48c0,-7.98 6.65,-14.62 14.62,-14.62l262.08 0c7.98,0 14.62,6.64 14.62,14.62l0 1320.48z"/>
  <path class="fil1" d="M22934.58 3534.82l526.81 -0.27c4.78,0 8.77,3.99 8.77,8.77l1.86 219.29c0,4.78 -3.99,8.77 -8.77,8.77l-815.73 -0.53c-4.78,0 -8.77,-3.99 -8.77,-8.77l0 -1332.18c0,-4.78 3.99,-8.77 8.77,-8.77l268.99 1.6c4.78,0 8.77,3.99 8.77,8.77l0.53 1094.55c0,4.79 3.99,8.78 8.77,8.78z"/>
 </g>
</svg>
