<?xml version="1.0" encoding="UTF-8"?>
<!DOCTYPE svg PUBLIC "-//W3C//DTD SVG 1.0//EN" "http://www.w3.org/TR/2001/REC-SVG-20010904/DTD/svg10.dtd">
<!-- Creator: CorelDRAW -->
<svg xmlns="http://www.w3.org/2000/svg" xml:space="preserve" width="118.444mm" height="67.9764mm" version="1.0" style="shape-rendering:geometricPrecision; text-rendering:geometricPrecision; image-rendering:optimizeQuality; fill-rule:evenodd; clip-rule:evenodd"
viewBox="0 0 2739.47 1572.21"
 xmlns:xlink="http://www.w3.org/1999/xlink"
 xmlns:xodm="http://www.corel.com/coreldraw/odm/2003">
 <defs>
  <style type="text/css">
   <![CDATA[
    .fil0 {fill:none}
    .fil1 {fill:#FEFEFE;fill-rule:nonzero}
   ]]>
  </style>
 </defs>
 <g id="Camada_x0020_1">
  <metadata id="CorelCorpID_0Corel-Layer"/>
  <g id="_2552588873056">
   <path class="fil0" d="M1866.3 157.3c-3.35,-2.12 -2.94,-7.11 0.65,-8.73 28.56,-12.98 67.32,-34.19 62.75,-70.09 -4.64,-37.12 -36.71,-52.06 -71.72,-40.64 -39.74,12.98 -79.63,25.79 -119.78,38.6 -2.69,0.9 -5.14,0.48 -7.42,-1.14 -25.21,-18.36 -53.77,-39.91 -80.13,-51.81 -67.15,-30.35 -137.56,-31.24 -211.16,-2.77 -2.45,0.98 -3.26,4.08 -1.47,6.12 11.75,13.14 24.48,26.44 38.1,39.99 126.95,125.98 254,251.88 381.2,377.61 31.66,31.26 68.78,81.67 40.72,120.02 -6.61,8.98 -20.57,19.42 -42.02,31.33 -94.4,52.47 -195.25,103.62 -302.55,153.55 -14.6,6.78 -27.83,11.92 -39.66,15.58 -2.85,0.9 -5.62,0.48 -8.16,-1.23l-189.95 -124.02c-1.23,-0.81 -2.62,-1.14 -4,-0.98 -42.02,4.64 -82.98,14.44 -122.96,29.37 -7.67,2.85 -9.79,12.65 -4.08,18.44l178.03 179.84c2.04,2.04 1.71,5.47 -0.65,7.11 -20.65,14.28 -37.86,31.9 -51.66,52.87 -2.12,3.26 0.25,7.51 4.08,7.34l71.56 -3.18c3.43,-0.17 6.28,2.45 6.36,5.87l6.78 262.89c0,2.2 2.37,3.51 4.24,2.53 26.44,-14.04 111.46,-55.9 117.57,-83.8 15.58,-70.74 28.56,-142.13 39,-214.18 0.9,-6.12 4.97,-11.27 10.69,-13.62 123.77,-49.61 249.76,-94.49 377.94,-134.54 24.81,-7.76 47.98,-2.12 69.51,16.72 1.87,1.71 3.18,3.76 3.83,6.2 11.83,43.97 17.79,74.98 17.95,93.01 1.39,147.77 3.51,295.54 6.2,443.29 0.73,39.16 -2.94,88.7 -1.23,133.48 0.25,7.01 7.42,11.67 13.95,9.05 114.72,-45.94 141.4,-135.12 160,-247.72 0.4,-2.62 2.04,-4.97 4.33,-6.28 49.44,-28.8 85.67,-48.79 108.69,-59.81 28.06,-13.46 35.5,-34.92 22.28,-64.21 -23.09,-51.24 -64.79,-17.79 -101.91,-10.77 -3.76,0.73 -5.22,-0.81 -4.33,-4.57l26.85 -113.91c0.58,-2.45 2.12,-4.49 4.32,-5.62 34.67,-17.79 69.19,-35.65 103.55,-53.61 33.05,-17.37 40.95,-42.35 23.75,-74.98 -18.28,-34.44 -67.72,-15.43 -95.22,-6.69 -2.6,0.81 -5.14,-1.47 -4.49,-4.08 16.56,-67.88 35.9,-136.67 49.77,-205.37 3.18,-15.5 11.02,-25.7 23.58,-30.68 118.3,-46.09 247.14,-93.34 327.52,-173.47 15.26,-15.18 45.03,-64.87 25.54,-82.4 -27.83,-24.96 -63.48,-33.94 -106.97,-26.93 -118.63,19.17 -220.31,70.33 -328.65,118.72 -2.69,1.23 -5.39,1.14 -7.99,-0.4l-202.76 -116.59c-1.79,-1.06 -1.71,-3.68 0.17,-4.57 17.37,-8.65 50.67,-23.42 61.12,-39.74 16.32,-25.54 -11.27,-59.65 -32.4,-66.16 -47.08,-14.52 -98.89,29.7 -145.73,32.72 -8.32,0.58 -17.22,-1.87 -26.77,-7.18 -26.6,-14.93 -52.22,-30.19 -76.78,-45.78"/>
   <path class="fil0" d="M781.84 671.9c-0.4,1.55 -1.31,2.69 -2.62,3.51 -92.12,60.71 -308.5,209.04 -311.11,330.29 -3.26,151.1 355.34,72.21 426.08,54.18 116.76,-29.7 230.58,-67.32 341.3,-112.85 1.39,-0.58 2.37,-1.79 2.62,-3.26l9.88 -56.3c0.17,-0.98 -0.81,-1.79 -1.79,-1.47 -92.93,37.77 -188.56,67.15 -286.8,87.95 -3.43,0.73 -6.78,-1.31 -7.67,-4.64 -105.17,-381.37 128.1,-742.17 514.2,-812.51 2.62,-0.48 3.1,-1.79 1.39,-3.83l-97.34 -121c-4.89,-6.03 -11.02,-7.91 -18.44,-5.55 -247.97,78.09 -421.76,234.66 -521.3,469.57 -5.39,12.65 -14.44,24.89 -25.29,30.68 -151.84,81.34 -296.02,174.53 -432.53,279.46 -81.51,62.66 -153.15,135.04 -214.84,217.11 -62.42,82.98 -81.18,194.69 33.36,242.42 19.99,8.24 37.54,13.46 52.62,15.66 202.59,28.56 437.17,-27.66 632.34,-87.54 6.05,-1.87 12.48,0.48 15.99,5.72l13.14 19.74c4.08,6.12 2.62,10.28 -4.32,12.65 -158.86,53.37 -321.97,87.47 -489.15,102.24 -101.01,8.98 -223.39,11.02 -319.93,-21.46 -43.82,-14.69 -72.62,-44.3 -86.41,-88.77 -1.64,-5.14 -2.77,-4.97 -3.43,0.33 -1.55,12.23 -2.12,24.64 -1.64,37.12 4.41,107.38 218.42,131.03 292.35,130.8 224.37,-0.73 437.5,-46.51 651.45,-110.4 2.62,-0.81 4.82,-0.17 6.53,1.96 254.73,301.24 663.35,375.49 1008.57,180.48 14.6,-8.32 20.65,-10.36 20.4,-29.29 -0.58,-54.42 -1.71,-108.52 -3.43,-162.2 -0.08,-2.45 -2.94,-3.76 -4.82,-2.2 -298.8,243.23 -706.35,184.81 -933.59,-121.98 -1.71,-2.29 -0.65,-5.55 2.04,-6.53 89.35,-31.41 178.44,-65.52 267.21,-102.39 13.87,-5.8 23.75,-7.51 21.38,-23.17 -0.81,-5.39 -4.57,-9.86 -9.71,-11.58 -18.28,-6.12 -56.55,-25.95 -74.98,-18.93 -141.72,53.85 -719.24,246.49 -819.52,81.51 -13.29,-21.78 -15.5,-45.86 -6.61,-72.04 13.95,-41.04 28.24,-70.01 42.92,-86.9 94.15,-108.36 204.38,-199.99 330.7,-274.97 0.73,-0.4 1.64,0.25 1.39,1.06l-10.61 37.37"/>
   <path class="fil0" d="M768.3 772.92c-57.84,46.75 -172.89,180.65 -24.23,211.97 15.02,3.18 30.76,5.47 47.32,6.86 3.35,0.33 6.03,-2.85 5.14,-6.2 -18.44,-68.94 -26.44,-139.12 -23.9,-210.51 0.08,-2.29 -2.53,-3.58 -4.33,-2.12"/>
   <path class="fil1" d="M1866.3 157.3c24.56,15.58 50.18,30.84 76.78,45.78 9.55,5.3 18.44,7.75 26.77,7.18 46.83,-3.02 98.64,-47.25 145.73,-32.72 21.13,6.53 48.71,40.64 32.4,66.16 -10.44,16.32 -43.74,31.09 -61.12,39.74 -1.88,0.9 -1.96,3.51 -0.17,4.57l202.76 116.59c2.6,1.55 5.3,1.64 7.99,0.4 108.36,-48.38 210.02,-99.54 328.65,-118.72 43.49,-7.01 79.14,1.96 106.97,26.93 19.5,17.55 -10.28,67.22 -25.54,82.4 -80.37,80.13 -209.2,127.37 -327.52,173.47 -12.56,4.97 -20.4,15.18 -23.58,30.68 -13.87,68.7 -33.21,137.48 -49.77,205.37 -0.65,2.62 1.88,4.89 4.49,4.08 27.5,-8.73 76.95,-27.74 95.22,6.69 17.22,32.63 9.3,57.61 -23.75,74.98 -34.35,17.95 -68.86,35.82 -103.55,53.61 -2.2,1.14 -3.76,3.18 -4.32,5.62l-26.85 113.91c-0.9,3.76 0.58,5.3 4.33,4.57 37.12,-7.01 78.82,-40.47 101.91,10.77 13.22,29.29 5.8,50.75 -22.28,64.21 -23.02,11.02 -59.24,31.01 -108.69,59.81 -2.29,1.31 -3.91,3.68 -4.33,6.28 -18.6,112.6 -45.28,201.78 -160,247.72 -6.53,2.62 -13.71,-2.04 -13.95,-9.05 -1.71,-44.8 1.96,-94.32 1.23,-133.48 -2.69,-147.77 -4.82,-295.54 -6.2,-443.29 -0.16,-18.03 -6.12,-49.04 -17.95,-93.01 -0.65,-2.45 -1.96,-4.49 -3.83,-6.2 -21.54,-18.85 -44.71,-24.48 -69.51,-16.72 -128.18,40.06 -254.17,84.94 -377.94,134.54 -5.72,2.37 -9.79,7.51 -10.69,13.62 -10.44,72.04 -23.42,143.44 -39,214.18 -6.12,27.91 -91.14,69.76 -117.57,83.8 -1.87,0.98 -4.24,-0.33 -4.24,-2.53l-6.78 -262.89c-0.08,-3.43 -2.94,-6.05 -6.36,-5.87l-71.56 3.18c-3.83,0.16 -6.2,-4.08 -4.08,-7.34 13.79,-20.97 31.01,-38.6 51.66,-52.87 2.37,-1.64 2.69,-5.06 0.65,-7.11l-178.03 -179.84c-5.7,-5.8 -3.58,-15.58 4.08,-18.44 39.99,-14.93 80.94,-24.73 122.96,-29.37 1.39,-0.17 2.77,0.16 4,0.98l189.95 124.02c2.53,1.71 5.3,2.12 8.16,1.23 11.83,-3.68 25.04,-8.82 39.66,-15.58 107.29,-49.94 208.15,-101.1 302.55,-153.55 21.46,-11.92 35.42,-22.36 42.02,-31.33 28.06,-38.35 -9.05,-88.77 -40.72,-120.02 -127.2,-125.73 -254.25,-251.63 -381.2,-377.61 -13.63,-13.54 -26.35,-26.85 -38.1,-39.99 -1.79,-2.04 -0.98,-5.14 1.47,-6.12 73.6,-28.47 144.01,-27.58 211.16,2.77 26.35,11.92 54.91,33.46 80.13,51.81 2.28,1.64 4.74,2.04 7.42,1.14 40.14,-12.81 80.05,-25.62 119.78,-38.6 35,-11.42 67.07,3.51 71.72,40.64 4.57,35.9 -34.19,57.11 -62.75,70.09 -3.58,1.64 -3.99,6.61 -0.65,8.73l-0.06 0.02z"/>
   <path class="fil1" d="M791.05 633.47c-126.31,74.98 -236.54,166.61 -330.7,274.97 -14.69,16.89 -28.97,45.86 -42.92,86.9 -8.9,26.19 -6.69,50.25 6.61,72.04 100.27,164.99 677.8,-27.66 819.52,-81.51 18.44,-7.01 56.7,12.81 74.98,18.93 5.14,1.71 8.9,6.2 9.71,11.58 2.37,15.66 -7.51,17.37 -21.38,23.17 -88.77,36.88 -177.87,70.99 -267.21,102.39 -2.69,0.98 -3.76,4.24 -2.04,6.53 227.24,306.79 634.79,365.21 933.59,121.98 1.88,-1.55 4.74,-0.25 4.82,2.2 1.71,53.68 2.85,107.78 3.43,162.2 0.25,18.93 -5.8,20.97 -20.4,29.29 -345.22,195 -753.84,120.75 -1008.57,-180.48 -1.71,-2.12 -3.91,-2.77 -6.53,-1.96 -213.93,63.89 -427.06,109.66 -651.45,110.4 -73.92,0.25 -287.94,-23.42 -292.35,-130.8 -0.48,-12.48 0.08,-24.89 1.64,-37.12 0.65,-5.3 1.79,-5.47 3.43,-0.33 13.79,44.47 42.59,74.08 86.41,88.77 96.52,32.48 218.92,30.43 319.93,21.46 167.19,-14.77 330.29,-48.87 489.15,-102.24 6.93,-2.37 8.4,-6.53 4.32,-12.65l-13.14 -19.74c-3.51,-5.22 -9.96,-7.59 -15.99,-5.72 -195.17,59.89 -429.75,116.11 -632.34,87.54 -15.1,-2.2 -32.64,-7.42 -52.62,-15.66 -114.56,-47.73 -95.79,-159.43 -33.36,-242.42 61.69,-82.09 133.32,-154.45 214.84,-217.11 136.5,-104.93 280.67,-198.1 432.53,-279.46 10.85,-5.8 19.9,-18.03 25.29,-30.68 99.54,-234.91 273.34,-391.48 521.3,-469.57 7.43,-2.37 13.54,-0.48 18.44,5.55l97.34 121c1.71,2.04 1.23,3.35 -1.39,3.83 -386.1,70.34 -619.38,431.14 -514.2,812.51 0.9,3.35 4.24,5.39 7.67,4.64 98.23,-20.8 193.86,-50.18 286.8,-87.95 0.98,-0.33 1.96,0.48 1.79,1.47l-9.88 56.3c-0.25,1.47 -1.23,2.69 -2.62,3.26 -110.72,45.53 -224.55,83.15 -341.3,112.85 -70.74,18.03 -429.35,96.94 -426.08,-54.18 2.62,-121.25 219,-269.58 311.11,-330.29 1.31,-0.81 2.2,-1.96 2.62,-3.51l10.61 -37.37c0.25,-0.81 -0.65,-1.47 -1.39,-1.06l-0.01 0.03zm-22.77 139.45c-57.84,46.75 -172.89,180.65 -24.23,211.97 15.02,3.18 30.76,5.47 47.32,6.86 3.35,0.33 6.03,-2.85 5.14,-6.2 -18.44,-68.94 -26.44,-139.12 -23.9,-210.51 0.08,-2.29 -2.53,-3.58 -4.33,-2.12z"/>
  </g>
 </g>
</svg>
