<svg width="128" height="101" viewBox="0 0 128 101" fill="none" xmlns="http://www.w3.org/2000/svg">
<g id="Logo vetorizada">
<path id="Vector" d="M87.1905 8.49508C87.0353 8.39409 87.0541 8.15657 87.2209 8.07927C88.545 7.46084 90.3416 6.45028 90.1299 4.73962C89.9146 2.97099 88.4279 2.25905 86.8048 2.80329C84.9626 3.42172 83.1132 4.03204 81.2517 4.64237C81.1268 4.68539 81.0133 4.66544 80.9078 4.58813C79.739 3.71348 78.4148 2.68671 77.1932 2.1194C74.0804 0.673076 70.8159 0.630684 67.404 1.98724C67.2905 2.03399 67.2529 2.18174 67.336 2.279C67.8807 2.90491 68.4709 3.53892 69.1023 4.18416C74.9878 10.187 80.8775 16.1856 86.7744 22.1766C88.2423 23.6659 89.9631 26.068 88.662 27.8952C88.3557 28.3228 87.7085 28.8203 86.7138 29.3883C82.3374 31.8882 77.6621 34.3257 72.6877 36.7047C72.0108 37.0276 71.3975 37.2726 70.8492 37.4472C70.717 37.4902 70.5884 37.4702 70.4707 37.3886L61.6647 31.4792C61.6077 31.4406 61.5434 31.425 61.4791 31.4325C59.5308 31.6538 57.6323 32.1207 55.7786 32.832C55.4232 32.9679 55.3249 33.4349 55.5894 33.7104L63.8428 42.2793C63.9375 42.3765 63.9223 42.5399 63.8125 42.6178C62.8554 43.2979 62.0571 44.1377 61.4178 45.137C61.3196 45.2923 61.4293 45.4949 61.6071 45.4868L64.9243 45.3353C65.0833 45.3272 65.2155 45.4518 65.2191 45.6152L65.5333 58.1415C65.5333 58.2462 65.6431 58.3086 65.7299 58.2618C66.9557 57.5929 70.8971 55.5986 71.1804 54.2688C71.9028 50.898 72.5045 47.4967 72.9885 44.0635C73.0304 43.7717 73.219 43.5267 73.4841 43.4145C79.2222 41.0505 85.0627 38.9122 91.0052 37.0039C92.1552 36.6342 93.2294 36.9029 94.2278 37.8007C94.3146 37.8823 94.3752 37.9796 94.4056 38.0962C94.9539 40.1915 95.2305 41.669 95.2378 42.528C95.3021 49.5689 95.4003 56.6098 95.5253 63.65C95.5592 65.5159 95.3888 67.8761 95.4683 70.0101C95.4798 70.3442 95.8122 70.5662 96.1148 70.4415C101.433 68.2527 102.67 64.0035 103.532 58.6384C103.551 58.5137 103.627 58.4015 103.733 58.3391C106.025 56.967 107.705 56.0144 108.772 55.4895C110.073 54.848 110.418 53.8256 109.805 52.4297C108.734 49.9884 106.801 51.5819 105.08 51.9167C104.906 51.9516 104.838 51.878 104.88 51.6991L106.124 46.2716C106.151 46.1551 106.223 46.0578 106.324 46.0036C107.932 45.1557 109.532 44.3048 111.125 43.4494C112.657 42.6215 113.023 41.4314 112.226 39.8766C111.378 38.2358 109.086 39.1416 107.811 39.5581C107.69 39.5967 107.573 39.4882 107.603 39.3636C108.371 36.1293 109.267 32.8513 109.91 29.5784C110.058 28.8397 110.421 28.354 111.003 28.1165C116.488 25.9202 122.461 23.669 126.187 19.8512C126.894 19.1281 128.275 16.7603 127.371 15.925C126.081 14.7355 124.428 14.3078 122.412 14.642C116.912 15.5553 112.198 17.9928 107.175 20.2989C107.051 20.3575 106.926 20.3531 106.805 20.2795L97.405 14.7243C97.3219 14.6738 97.3255 14.5491 97.4129 14.5067C98.2184 14.0946 99.7621 13.3908 100.246 12.6134C101.002 11.3965 99.7239 9.77122 98.7443 9.46076C96.5619 8.76876 94.1599 10.8759 91.9884 11.0199C91.6027 11.0474 91.1902 10.9308 90.7474 10.6777C89.5143 9.96635 88.3266 9.23944 87.1881 8.49633" stroke="#81BED4" stroke-width="0.288639" stroke-miterlimit="10"/>
<path id="Vector_2" d="M36.916 33.0147C36.8972 33.0883 36.8553 33.1431 36.7946 33.1818C32.5239 36.0744 22.4926 43.1421 22.3719 48.9193C22.2208 56.1191 38.8454 52.3599 42.1245 51.5009C47.5374 50.0857 52.8139 48.2934 57.9472 46.1239C58.0115 46.0965 58.057 46.0385 58.0685 45.9687L58.5265 43.2861C58.5343 43.2394 58.4889 43.2007 58.4434 43.2163C54.135 45.0161 49.7016 46.4157 45.1476 47.4069C44.9887 47.4418 44.8334 47.3446 44.7921 47.1856C39.9166 29.0142 50.731 11.8229 68.6299 8.47141C68.7512 8.44834 68.7737 8.386 68.6942 8.28875L64.1814 2.52339C63.9546 2.236 63.6707 2.14622 63.3268 2.25906C51.8313 5.97961 43.7743 13.44 39.1596 24.6329C38.9097 25.2357 38.49 25.8186 37.9871 26.0948C30.948 29.9706 24.2637 34.4105 17.9355 39.4103C14.1566 42.3959 10.8357 45.8446 7.97579 49.7553C5.08189 53.709 4.21209 59.0318 9.52252 61.306C10.4493 61.6987 11.2627 61.9475 11.9621 62.0522C21.3541 63.4131 32.2291 60.7343 41.2771 57.8809C41.5574 57.7918 41.8558 57.904 42.0183 58.1534L42.6273 59.0941C42.8166 59.3859 42.7486 59.5841 42.4272 59.6969C35.0623 62.2399 27.5009 63.8645 19.7503 64.5683C15.0677 64.996 9.39393 65.0932 4.91873 63.5459C2.88736 62.8458 1.55232 61.435 0.913011 59.316C0.837191 59.071 0.78442 59.0791 0.754092 59.3316C0.682518 59.9145 0.65583 60.5055 0.678272 61.1002C0.882683 66.2166 10.8042 67.3438 14.2312 67.3325C24.6331 67.2976 34.5134 65.1163 44.4318 62.0722C44.5531 62.0335 44.6551 62.0641 44.7345 62.1657C56.5436 76.5192 75.4871 80.0571 91.4912 70.7651C92.1681 70.3686 92.4483 70.2713 92.4368 69.3692C92.4101 66.7764 92.3573 64.1986 92.2779 61.6407C92.2742 61.5242 92.1414 61.4618 92.0547 61.536C78.2027 73.1253 59.3089 70.3418 48.7742 55.7239C48.6947 55.6148 48.7439 55.4596 48.8688 55.4128C53.011 53.916 57.1411 52.2907 61.2566 50.534C61.8995 50.2578 62.3575 50.1761 62.2477 49.4299C62.2101 49.173 62.036 48.9598 61.7976 48.8782C60.9503 48.5864 59.1761 47.6419 58.3214 47.9761C51.7512 50.5421 24.9777 59.7206 20.329 51.86C19.7127 50.822 19.6102 49.6749 20.0227 48.4274C20.6693 46.4718 21.3316 45.0915 22.0122 44.2867C26.377 39.1236 31.4873 34.7578 37.343 31.185C37.3769 31.1656 37.4188 31.1968 37.4073 31.2355L36.9153 33.0159" stroke="#81BED4" stroke-width="0.288639" stroke-miterlimit="10"/>
<path id="Vector_3" d="M89.4488 86.7395C89.5283 86.6659 89.4791 86.5294 89.3694 86.5294H87.3495C87.3155 86.5294 87.2816 86.545 87.2585 86.5762L85.753 88.5742C85.6924 88.6522 85.7494 88.7687 85.8477 88.7687L87.2173 88.7413C87.244 88.7413 87.2701 88.7295 87.2931 88.7101L89.4494 86.7389" stroke="#808080" stroke-width="0.288639" stroke-miterlimit="10"/>
<path id="Vector_4" d="M20.7111 97.1973L17.9422 89.8067C17.8742 89.6315 17.7117 89.5149 17.5297 89.5112L16.1152 89.5037C15.9448 89.5 15.892 89.5816 15.9563 89.7406L19.6933 99.2502C20.087 100.245 21.456 100.245 21.8496 99.2465L25.5793 89.7525C25.6473 89.581 25.5909 89.4956 25.4125 89.5L24.0884 89.5193C23.8276 89.523 23.6535 89.6477 23.5589 89.8965L20.8542 97.1979C20.8051 97.3301 20.7596 97.3301 20.7105 97.1979" stroke="#808080" stroke-width="0.288639" stroke-miterlimit="10"/>
<path id="Vector_5" d="M28.5902 89.6278C28.5902 89.5579 28.5374 89.5031 28.4689 89.5031H26.8348C26.7669 89.5031 26.7135 89.5573 26.7135 89.6278V99.7203C26.7135 99.7901 26.7663 99.8449 26.8348 99.8449H28.4689C28.5368 99.8449 28.5902 99.7907 28.5902 99.7203V89.6278Z" stroke="#808080" stroke-width="0.288639" stroke-miterlimit="10"/>
<path id="Vector_6" d="M47.1364 96.2797L47.1328 97.7883C47.1328 97.9012 47.0837 97.9829 46.9818 98.0252C45.0565 98.908 42.9045 98.3787 42.102 96.2716C40.6456 92.4575 44.2692 89.5069 47.6095 91.8004C47.84 91.96 48.0372 91.9208 48.1918 91.6839L48.6152 91.0424C48.7553 90.8285 48.7286 90.6459 48.5285 90.4944C45.2148 87.9633 40.2107 89.7132 39.9724 94.3508C39.7188 99.2185 44.746 101.446 48.6346 98.9348C48.7553 98.8569 48.816 98.7441 48.816 98.5963V94.8602C48.816 94.7317 48.7517 94.6657 48.6267 94.6657L45.5478 94.6694C45.4763 94.6694 45.4417 94.7043 45.4459 94.7741L45.4836 95.9131C45.4872 95.9985 45.5515 96.0646 45.6346 96.0683L46.9811 96.1114C47.0831 96.1151 47.1364 96.17 47.1364 96.2784" stroke="#808080" stroke-width="0.288639" stroke-miterlimit="10"/>
<path id="Vector_7" d="M52.5112 95.5022C52.5112 95.4324 52.5682 95.3738 52.6362 95.3738H55.9007C55.9686 95.3738 56.0256 95.3152 56.0256 95.2454L56.0293 94.0366C56.0293 93.9668 55.9723 93.9082 55.9043 93.9082H52.6441C52.5761 93.9082 52.5191 93.8496 52.5191 93.7797L52.5112 91.1439C52.5112 91.0741 52.5682 91.0155 52.6362 91.0155L56.8499 91.0118C56.9179 91.0118 56.9749 90.9532 56.9749 90.8833L56.9785 89.6353C56.9785 89.5654 56.9215 89.5068 56.8536 89.5068L50.7601 89.4994C50.6921 89.4994 50.6351 89.558 50.6351 89.6278V99.7165C50.6351 99.7864 50.6921 99.845 50.7601 99.845H56.8499C56.9179 99.845 56.9749 99.7864 56.9749 99.7165V98.4335C56.9749 98.3637 56.9179 98.3051 56.8499 98.3051H52.6398C52.5719 98.3051 52.5149 98.2465 52.5149 98.1767L52.5112 95.5016" stroke="#808080" stroke-width="0.288639" stroke-miterlimit="10"/>
<path id="Vector_8" d="M67.9481 92.7262L67.9402 99.7434C67.9402 99.7976 67.982 99.8406 68.0348 99.8406L69.4687 99.8444C69.5257 99.8444 69.5706 99.7939 69.5706 99.7353V89.7207C69.5706 89.5692 69.4948 89.4913 69.3474 89.495L67.8534 89.5225C67.74 89.5262 67.6569 89.5767 67.5999 89.6821L64.211 96.2404C64.1619 96.3376 64.1128 96.3376 64.0637 96.2404L60.6706 89.74C60.5947 89.5998 60.451 89.5106 60.2963 89.5069L58.8855 89.4994C58.7453 89.4994 58.6738 89.573 58.6738 89.717V99.7434C58.6738 99.7976 58.7156 99.8406 58.7684 99.8406L60.1981 99.8444C60.2696 99.8444 60.3042 99.8095 60.3042 99.7396L60.3078 92.7225C60.3078 92.4544 60.3685 92.4388 60.4928 92.6757L63.3297 98.1381C63.6736 98.7989 64.5968 98.7989 64.9413 98.1381L67.7709 92.6838C67.888 92.4544 67.9487 92.4662 67.9487 92.7268" stroke="#808080" stroke-width="0.288639" stroke-miterlimit="10"/>
<path id="Vector_9" d="M77.2345 94.1027C77.1629 94.1027 77.1059 94.0441 77.1059 93.9705L77.0986 91.1477C77.0986 91.0742 77.1556 91.0156 77.2272 91.0156L81.4337 91.0118C81.5059 91.0118 81.5623 90.9532 81.5623 90.8797L81.5659 89.6397C81.5659 89.5655 81.5089 89.5075 81.4373 89.5075L75.3511 89.5C75.2789 89.5 75.2225 89.5586 75.2225 89.6322V99.7128C75.2225 99.787 75.2796 99.845 75.3511 99.845H76.9737C77.0452 99.845 77.1023 99.7864 77.1023 99.7128V95.7747C77.1023 95.7012 77.1593 95.6426 77.2309 95.6426L80.741 95.6351C80.8132 95.6351 80.8696 95.5765 80.8696 95.5029L80.8811 94.2355C80.8811 94.1619 80.8241 94.1033 80.7525 94.1033H77.2345" stroke="#808080" stroke-width="0.288639" stroke-miterlimit="10"/>
<path id="Vector_10" d="M99.4425 97.5396C97.8994 98.8575 95.2778 98.5776 94.4723 96.4199C93.1446 92.8858 95.9705 89.2936 99.4728 91.8247C99.605 91.922 99.7185 91.9026 99.8167 91.7705L100.471 90.9114C100.551 90.8029 100.532 90.6508 100.426 90.5654C98.4247 88.9832 95.6029 88.9713 93.7572 90.7325C91.2418 93.1389 91.8283 98.014 95.0813 99.5227C96.9234 100.374 98.7279 100.086 100.498 98.6599C100.699 98.4965 100.713 98.3176 100.535 98.1275L100.017 97.5714C99.8361 97.3769 99.6432 97.3656 99.4425 97.5402" stroke="#808080" stroke-width="0.288639" stroke-miterlimit="10"/>
<path id="Vector_11" d="M103.864 89.6278C103.864 89.5579 103.811 89.5031 103.743 89.5031H102.109C102.041 89.5031 101.988 89.5573 101.988 89.6278V99.7203C101.988 99.7901 102.04 99.8449 102.109 99.8449H103.743C103.811 99.8449 103.864 99.7907 103.864 99.7203V89.6278Z" stroke="#808080" stroke-width="0.288639" stroke-miterlimit="10"/>
<path id="Vector_12" d="M108.15 98.2584C108.078 98.2584 108.017 98.196 108.017 98.1225L108.021 89.6396C108.021 89.5654 107.96 89.5037 107.889 89.5037H106.281C106.21 89.5037 106.149 89.5661 106.149 89.6396V99.709C106.149 99.7826 106.21 99.845 106.281 99.845H111.887C111.959 99.845 112.02 99.7826 112.02 99.709V98.3986C112.02 98.3251 111.959 98.2627 111.887 98.2627L108.15 98.259" stroke="#808080" stroke-width="0.288639" stroke-miterlimit="10"/>
<path id="Vector_13" d="M32.4674 97.3837C32.4862 97.3332 32.5317 97.302 32.5808 97.302H36.575C36.6241 97.302 36.6696 97.3332 36.6884 97.3837L37.5582 99.7633C37.577 99.8138 37.6225 99.845 37.6716 99.845H39.3094C39.3961 99.845 39.4531 99.7552 39.4228 99.6741L35.5681 89.5854C35.5493 89.5386 35.5038 89.5075 35.4547 89.5075L33.7145 89.5037C33.6653 89.5037 33.6198 89.5349 33.601 89.5817L29.7275 99.6779C29.6972 99.7595 29.7579 99.8487 29.841 99.8487L31.4823 99.8369C31.5314 99.8369 31.5769 99.8057 31.5957 99.7552L32.4655 97.3837" stroke="#808080" stroke-width="0.288639" stroke-miterlimit="10"/>
<path id="Vector_14" d="M84.6673 97.3837C84.6861 97.3332 84.7316 97.3021 84.7807 97.3021H88.7749C88.8241 97.3021 88.8696 97.3332 88.8884 97.3837L89.7582 99.7633C89.777 99.8138 89.8225 99.845 89.8716 99.845H91.5093C91.5967 99.845 91.6531 99.7552 91.6227 99.6742L87.768 89.5854C87.7492 89.5386 87.7038 89.5075 87.6546 89.5075H85.9108C85.8616 89.5075 85.8161 89.5386 85.7973 89.5854L81.9275 99.6742C81.8972 99.7558 81.9578 99.845 82.0409 99.845L83.6786 99.8412C83.7278 99.8412 83.7732 99.8101 83.7921 99.7596L84.6661 97.3843" stroke="#808080" stroke-width="0.288639" stroke-miterlimit="10"/>
<path id="Vector_15" d="M36.2882 37.8281C33.6066 40.0556 28.2731 46.4356 35.1648 47.9281C35.8611 48.0796 36.5908 48.1887 37.3587 48.2547C37.514 48.2703 37.6384 48.1188 37.5971 47.9592C36.7425 44.6745 36.3713 41.3305 36.4889 37.9291C36.4926 37.82 36.3719 37.7583 36.2882 37.8281Z" stroke="#81BED4" stroke-width="0.288639" stroke-miterlimit="10"/>
<path id="Vector_16" d="M87.1905 8.49511C88.3291 9.2376 89.5167 9.9645 90.7498 10.6764C91.1926 10.9289 91.6045 11.0455 91.9909 11.0187C94.1617 10.8747 96.5637 8.76754 98.7467 9.45954C99.7263 9.77062 101.005 11.3959 100.249 12.6122C99.7645 13.3896 98.2208 14.0934 97.4153 14.5055C97.328 14.5485 97.3243 14.6725 97.4074 14.723L106.807 20.2783C106.928 20.3519 107.053 20.3562 107.178 20.2976C112.201 17.9922 116.914 15.5547 122.414 14.6408C124.43 14.3066 126.083 14.7343 127.373 15.9237C128.277 16.7597 126.897 19.1269 126.189 19.85C122.463 23.6678 116.491 25.919 111.006 28.1153C110.424 28.3522 110.06 28.8384 109.913 29.5772C109.27 32.8508 108.373 36.1281 107.606 39.3623C107.575 39.487 107.693 39.5955 107.814 39.5568C109.089 39.141 111.381 38.2352 112.228 39.8754C113.026 41.4302 112.659 42.6203 111.127 43.4482C109.535 44.3035 107.935 45.1551 106.327 46.0023C106.225 46.0566 106.153 46.1538 106.127 46.2704L104.882 51.6979C104.84 51.8768 104.909 51.9504 105.083 51.9155C106.804 51.5813 108.737 49.9872 109.807 52.4285C110.42 53.8244 110.076 54.8468 108.774 55.4883C107.707 56.0132 106.028 56.9658 103.736 58.3379C103.63 58.4002 103.554 58.5131 103.535 58.6371C102.672 64.0023 101.436 68.2515 96.1173 70.4403C95.8146 70.565 95.4816 70.343 95.4707 70.0089C95.3912 67.8743 95.5617 65.5147 95.5277 63.6488C95.4028 56.6079 95.3045 49.567 95.2402 42.5268C95.2329 41.6677 94.9563 40.1902 94.408 38.0949C94.3777 37.9784 94.317 37.8811 94.2303 37.7994C93.2319 36.9011 92.1577 36.633 91.0076 37.0027C85.0652 38.9116 79.2246 41.0499 73.4866 43.4133C73.2215 43.5261 73.0328 43.7711 72.991 44.0623C72.507 47.4948 71.9053 50.8968 71.1828 54.2676C70.899 55.5974 66.9575 57.5917 65.7323 58.2606C65.6456 58.3073 65.5358 58.245 65.5358 58.1403L65.2216 45.614C65.2179 45.4506 65.0851 45.3259 64.9268 45.334L61.6095 45.4855C61.4318 45.493 61.322 45.291 61.4203 45.1358C62.0596 44.1365 62.8578 43.2967 63.815 42.6166C63.9247 42.5386 63.9399 42.3753 63.8453 42.2781L55.5918 33.7092C55.3274 33.433 55.4256 32.9667 55.7811 32.8308C57.6347 32.1195 59.5333 31.6525 61.4815 31.4312C61.5458 31.4231 61.6101 31.4387 61.6671 31.478L70.4732 37.3874C70.5902 37.469 70.7188 37.4883 70.8517 37.446C71.4 37.2708 72.0126 37.0258 72.6901 36.7035C77.6639 34.3239 82.3399 31.8863 86.7162 29.387C87.711 28.8191 88.3582 28.3216 88.6645 27.894C89.9656 26.0667 88.2448 23.6641 86.7769 22.1754C80.8799 16.1843 74.9902 10.1858 69.1048 4.18294C68.4727 3.5377 67.8832 2.90369 67.3385 2.27778C67.2554 2.18052 67.293 2.03277 67.4064 1.98602C70.8183 0.629463 74.0828 0.671855 77.1957 2.11818C78.4173 2.68611 79.7414 3.71226 80.9102 4.58691C81.0158 4.66484 81.1298 4.68416 81.2542 4.64115C83.1151 4.03082 84.9651 3.4205 86.8072 2.80207C88.4298 2.25783 89.9164 2.96915 90.1324 4.7384C90.3441 6.44906 88.5474 7.45962 87.2233 8.07804C87.0571 8.15597 87.0383 8.39287 87.193 8.49386L87.1905 8.49511Z" fill="#037CA9"/>
<path id="Vector_17" d="M37.3429 31.1837C31.4872 34.7566 26.3769 39.1223 22.0121 44.2855C21.331 45.0903 20.6692 46.4705 20.0226 48.4262C19.6102 49.6743 19.7127 50.8207 20.3289 51.8587C24.9776 59.72 51.7511 50.5408 58.3214 47.9749C59.176 47.6407 60.9502 48.5852 61.7976 48.8769C62.036 48.9586 62.2101 49.1724 62.2477 49.4287C62.3574 50.1749 61.8995 50.2566 61.2565 50.5327C57.141 52.2901 53.0104 53.9154 48.8688 55.4116C48.7438 55.4583 48.6947 55.6136 48.7742 55.7227C59.3089 70.3405 78.2026 73.1241 92.0546 61.5348C92.1419 61.4612 92.2742 61.5229 92.2778 61.6395C92.3573 64.1974 92.41 66.7752 92.4367 69.368C92.4483 70.2701 92.168 70.3673 91.4911 70.7638C75.487 80.0552 56.5436 76.5174 44.7345 62.1644C44.655 62.0634 44.5531 62.0323 44.4318 62.0709C34.5139 65.1151 24.6337 67.2958 14.2312 67.3313C10.8041 67.3432 0.882636 66.2154 0.678225 61.099C0.655783 60.5043 0.681865 59.9133 0.754045 59.3304C0.784373 59.0779 0.837144 59.0698 0.912964 59.3148C1.55228 61.4338 2.88731 62.8446 4.91868 63.5447C9.39327 65.092 15.0676 64.9947 19.7503 64.5671C27.5009 63.8632 35.0623 62.2386 42.4271 59.6957C42.7486 59.5829 42.8165 59.3846 42.6273 59.0929L42.0183 58.1521C41.8557 57.9034 41.5567 57.7905 41.2771 57.8797C32.229 60.7331 21.354 63.4119 11.9621 62.051C11.2621 61.9462 10.4487 61.6975 9.52247 61.3047C4.21143 59.0305 5.08185 53.7084 7.97574 49.7541C10.8357 45.8428 14.1566 42.3946 17.9355 39.4091C24.2637 34.4093 30.9474 29.97 37.9871 26.0936C38.4899 25.8174 38.9097 25.2345 39.1596 24.6316C43.7743 13.4388 51.8312 5.97839 63.3267 2.25784C63.6713 2.145 63.9545 2.23478 64.1814 2.52217L68.6942 8.28753C68.7736 8.38478 68.7512 8.44712 68.6299 8.47019C50.7303 11.8217 39.916 29.013 44.7921 47.1844C44.8339 47.344 44.9886 47.4412 45.1475 47.4057C49.7016 46.4144 54.1349 45.0149 58.4433 43.2151C58.4888 43.1995 58.5343 43.2381 58.5264 43.2849L58.0685 45.9674C58.0569 46.0373 58.0114 46.0959 57.9472 46.1227C52.8144 48.2922 47.5374 50.0845 42.1244 51.4996C38.8448 52.3587 22.2202 56.1185 22.3718 48.9181C22.4931 43.1409 32.5244 36.0732 36.7946 33.1806C36.8553 33.1419 36.8965 33.087 36.9159 33.0135L37.4078 31.233C37.4194 31.1943 37.3775 31.1632 37.3435 31.1825L37.3429 31.1837ZM36.2875 37.8281C33.6059 40.0556 28.2724 46.4356 35.1642 47.9281C35.8605 48.0796 36.5902 48.1887 37.3581 48.2548C37.5134 48.2704 37.6377 48.1189 37.5965 47.9593C36.7418 44.6745 36.3706 41.3305 36.4883 37.9291C36.4919 37.82 36.3712 37.7583 36.2875 37.8281Z" fill="#037CA9"/>
<path id="Vector_18" d="M89.4488 86.7395L87.2925 88.7107C87.27 88.7301 87.2434 88.7419 87.2167 88.7419L85.8471 88.7693C85.7488 88.7693 85.6918 88.6528 85.7524 88.5748L87.2579 86.5768C87.2804 86.5456 87.3149 86.53 87.3489 86.53H89.3687C89.4785 86.53 89.5277 86.6659 89.4482 86.7401L89.4488 86.7395Z" fill="black"/>
<path id="Vector_19" d="M20.8548 97.1973L23.5594 89.8959C23.6541 89.6471 23.8282 89.5225 24.089 89.5187L25.4131 89.4994C25.5908 89.4956 25.6478 89.5811 25.5799 89.7519L21.8502 99.2459C21.4565 100.245 20.0875 100.245 19.6938 99.2496L15.9568 89.74C15.8925 89.5804 15.9453 89.4988 16.1157 89.5031L17.5302 89.5106C17.7116 89.5144 17.8748 89.6309 17.9427 89.8061L20.7116 97.1967C20.7608 97.3289 20.8063 97.3289 20.8554 97.1967L20.8548 97.1973Z" fill="black"/>
<path id="Vector_20" d="M28.5902 99.7203C28.5902 99.7901 28.5374 99.8449 28.4689 99.8449H26.8348C26.7669 99.8449 26.7135 99.7907 26.7135 99.7203V89.6278C26.7135 89.5579 26.7663 89.5031 26.8348 89.5031H28.4689C28.5368 89.5031 28.5902 89.5573 28.5902 89.6278V99.7203Z" fill="black"/>
<path id="Vector_21" d="M46.9811 96.1125L45.6346 96.0695C45.5515 96.0658 45.4872 95.9997 45.4836 95.9143L45.4459 94.7753C45.4423 94.7055 45.4763 94.6706 45.5478 94.6706L48.6267 94.6668C48.7517 94.6668 48.816 94.7329 48.816 94.8613V98.5975C48.816 98.7452 48.7553 98.858 48.6346 98.936C44.746 101.447 39.7188 99.2196 39.9724 94.352C40.2107 89.7138 45.2148 87.9645 48.5285 90.4955C48.7293 90.647 48.7553 90.8297 48.6152 91.0435L48.1918 91.685C48.0366 91.9219 47.84 91.9612 47.6095 91.8016C44.2698 89.5081 40.6456 92.4587 42.102 96.2727C42.9039 98.3799 45.0559 98.9085 46.9818 98.0264C47.0837 97.9834 47.1328 97.9017 47.1328 97.7895L47.1364 96.2808C47.1364 96.1717 47.0837 96.1175 46.9811 96.1138V96.1125Z" fill="black"/>
<path id="Vector_22" d="M52.5112 95.5023L52.5149 98.1774C52.5149 98.2472 52.5719 98.3058 52.6398 98.3058H56.8499C56.9179 98.3058 56.9749 98.3644 56.9749 98.4342V99.7172C56.9749 99.787 56.9179 99.8456 56.8499 99.8456H50.7601C50.6921 99.8456 50.6351 99.787 50.6351 99.7172V89.6285C50.6351 89.5586 50.6921 89.5 50.7601 89.5L56.8536 89.5075C56.9215 89.5075 56.9785 89.5661 56.9785 89.6359L56.9749 90.884C56.9749 90.9538 56.9179 91.0124 56.8499 91.0124L52.6362 91.0162C52.5682 91.0162 52.5112 91.0748 52.5112 91.1446L52.5191 93.7804C52.5191 93.8502 52.5761 93.9088 52.6441 93.9088H55.9043C55.9723 93.9088 56.0293 93.9674 56.0293 94.0373L56.0256 95.2461C56.0256 95.3159 55.9686 95.3745 55.9007 95.3745H52.6362C52.5682 95.3745 52.5112 95.4331 52.5112 95.5029V95.5023Z" fill="black"/>
<path id="Vector_23" d="M67.7704 92.6838L64.9408 98.1381C64.5969 98.7989 63.6737 98.7989 63.3292 98.1381L60.4923 92.6757C60.3673 92.4388 60.3073 92.4544 60.3073 92.7225L60.3037 99.7396C60.3037 99.8095 60.2697 99.8444 60.1975 99.8444L58.7678 99.8406C58.7151 99.8406 58.6732 99.7976 58.6732 99.7434V89.717C58.6732 89.573 58.7448 89.4994 58.8849 89.4994L60.2958 89.5069C60.451 89.5106 60.5948 89.6004 60.67 89.74L64.0631 96.2404C64.1122 96.3376 64.1614 96.3376 64.2105 96.2404L67.5993 89.6821C67.6564 89.5773 67.7395 89.5262 67.8529 89.5225L69.3468 89.495C69.4942 89.4913 69.5701 89.5692 69.5701 89.7207V99.7353C69.5701 99.7939 69.5246 99.8444 69.4682 99.8444L68.0343 99.8406C67.9815 99.8406 67.9396 99.7976 67.9396 99.7434L67.9475 92.7262C67.9475 92.4656 67.8869 92.4544 67.7698 92.6832L67.7704 92.6838Z" fill="black"/>
<path id="Vector_24" d="M77.2345 94.1027H80.7525C80.8247 94.1027 80.8811 94.1613 80.8811 94.2348L80.8696 95.5022C80.8696 95.5764 80.8126 95.6344 80.741 95.6344L77.2309 95.6419C77.1587 95.6419 77.1023 95.7005 77.1023 95.774V99.7122C77.1023 99.7864 77.0452 99.8443 76.9737 99.8443H75.3511C75.2789 99.8443 75.2225 99.7857 75.2225 99.7122V89.6315C75.2225 89.558 75.2796 89.4994 75.3511 89.4994L81.4373 89.5068C81.5089 89.5068 81.5659 89.5654 81.5659 89.639L81.5623 90.879C81.5623 90.9525 81.5053 91.0111 81.4337 91.0111L77.2272 91.0149C77.1556 91.0149 77.0986 91.0735 77.0986 91.1471L77.1059 93.9699C77.1059 94.0434 77.1629 94.102 77.2345 94.102V94.1027Z" fill="black"/>
<path id="Vector_25" d="M94.4717 96.4199C95.2772 98.5776 97.8988 98.8575 99.4419 97.5396C99.642 97.3644 99.8355 97.3762 100.017 97.5708L100.535 98.1268C100.713 98.3176 100.697 98.4959 100.497 98.6592C98.7267 100.086 96.9228 100.374 95.0807 99.522C91.8277 98.0134 91.2412 93.1383 93.7566 90.7319C95.6023 88.9707 98.4241 88.9826 100.425 90.5648C100.531 90.6502 100.55 90.8017 100.471 90.9108L99.8161 91.7699C99.7178 91.902 99.6044 91.9214 99.4722 91.8241C95.9693 89.293 93.144 92.8858 94.4717 96.4193V96.4199Z" fill="black"/>
<path id="Vector_26" d="M103.864 99.7203C103.864 99.7901 103.811 99.8449 103.743 99.8449H102.109C102.041 99.8449 101.988 99.7907 101.988 99.7203V89.6278C101.988 89.5579 102.04 89.5031 102.109 89.5031H103.743C103.811 89.5031 103.864 89.5573 103.864 89.6278V99.7203Z" fill="black"/>
<path id="Vector_27" d="M108.15 98.2583L111.887 98.2621C111.958 98.2621 112.019 98.3244 112.019 98.398V99.7084C112.019 99.782 111.958 99.8443 111.887 99.8443H106.281C106.209 99.8443 106.149 99.782 106.149 99.7084V89.639C106.149 89.5648 106.209 89.5031 106.281 89.5031H107.888C107.96 89.5031 108.021 89.5654 108.021 89.639L108.017 98.1218C108.017 98.1954 108.078 98.2577 108.149 98.2577L108.15 98.2583Z" fill="black"/>
<path id="Vector_28" d="M32.4674 97.3837L31.5976 99.7552C31.5788 99.8057 31.5333 99.8369 31.4841 99.8369L29.8428 99.8487C29.7597 99.8487 29.699 99.7595 29.7294 99.6779L33.6029 89.5817C33.6217 89.5349 33.6672 89.5037 33.7163 89.5037L35.4565 89.5075C35.5056 89.5075 35.5511 89.5386 35.5699 89.5854L39.4246 99.6741C39.4549 99.7558 39.3979 99.845 39.3112 99.845H37.6735C37.6243 99.845 37.5789 99.8138 37.5601 99.7633L36.6902 97.3837C36.6714 97.3332 36.626 97.302 36.5768 97.302H32.5826C32.5335 97.302 32.488 97.3332 32.4692 97.3837H32.4674ZM36.114 95.7391L34.6504 91.5947C34.6013 91.4588 34.5521 91.4588 34.503 91.5947L33.0697 95.6805C33.0054 95.8595 33.0661 95.9486 33.2511 95.9486H35.9709C36.1146 95.9486 36.1638 95.8788 36.1146 95.7385L36.114 95.7391Z" fill="black"/>
<path id="Vector_29" d="M84.6673 97.3837L83.7932 99.759C83.7744 99.8095 83.7289 99.8406 83.6798 99.8406L82.0421 99.8444C81.959 99.8444 81.8984 99.7546 81.9287 99.6735L85.7985 89.5848C85.8173 89.538 85.8628 89.5069 85.912 89.5069H87.6558C87.7049 89.5069 87.7504 89.538 87.7692 89.5848L91.6239 99.6735C91.6543 99.7552 91.5972 99.8444 91.5105 99.8444H89.8728C89.8237 99.8444 89.7782 99.8132 89.7594 99.7627L88.8896 97.3831C88.8708 97.3326 88.8253 97.3014 88.7761 97.3014H84.7819C84.7328 97.3014 84.6873 97.3326 84.6685 97.3831L84.6673 97.3837ZM88.3139 95.7392L86.8503 91.5947C86.8012 91.4544 86.752 91.4544 86.7029 91.5947L85.2696 95.6806C85.2053 95.8595 85.266 95.9486 85.451 95.9486H88.1708C88.3145 95.9486 88.3637 95.8788 88.3145 95.7385L88.3139 95.7392Z" fill="black"/>
</g>
</svg>
