<?xml version="1.0" encoding="UTF-8"?>
<!DOCTYPE svg PUBLIC "-//W3C//DTD SVG 1.0//EN" "http://www.w3.org/TR/2001/REC-SVG-20010904/DTD/svg10.dtd">
<!-- Creator: CorelDRAW -->
<svg xmlns="http://www.w3.org/2000/svg" xml:space="preserve" width="109.287mm" height="110.611mm" version="1.0" style="shape-rendering:geometricPrecision; text-rendering:geometricPrecision; image-rendering:optimizeQuality; fill-rule:evenodd; clip-rule:evenodd"
viewBox="0 0 2108.23 2133.77"
 xmlns:xlink="http://www.w3.org/1999/xlink"
 xmlns:xodm="http://www.corel.com/coreldraw/odm/2003">
 <defs>
  <style type="text/css">
   <![CDATA[
    .fil2 {fill:none}
    .fil0 {fill:none;fill-rule:nonzero}
    .fil1 {fill:#FEFEFE;fill-rule:nonzero}
   ]]>
  </style>
 </defs>
 <g id="Camada_x0020_1">
  <metadata id="CorelCorpID_0Corel-Layer"/>
  <g id="_2379776733488">
   <path class="fil0" d="M935.99 1146.06c0.56,0.77 0.51,1.84 -0.15,2.55l-399.85 465.19c-1.17,1.33 -0.2,3.42 1.58,3.42l83.05 0.36c0.61,0 1.22,-0.26 1.58,-0.72l352.27 -410.01c0.92,-1.02 2.55,-0.92 3.32,0.2l281.88 409.35c0.36,0.56 1.02,0.92 1.74,0.92l299.59 0.15c1.68,0 2.65,-1.89 1.74,-3.27l-416.24 -604.7c-0.56,-0.77 -0.51,-1.84 0.15,-2.55l378.77 -441.25c1.17,-1.38 0.2,-3.47 -1.58,-3.47l-83.1 0.05c-0.61,0 -1.17,0.25 -1.58,0.71l-331.6 385.35c-0.92,1.02 -2.55,0.92 -3.32,-0.2l-265.34 -384.74c-0.36,-0.56 -1.02,-0.92 -1.74,-0.92l-299.13 -0.26c-1.69,0 -2.66,1.89 -1.74,3.27l399.7 580.56"/>
   <path class="fil0" d="M803.06 633.34c-0.3,-0.41 -0.76,-0.66 -1.28,-0.66l-131.85 -0.46c-1.22,0 -1.94,1.38 -1.28,2.4l627.32 911.95c0.31,0.41 0.77,0.66 1.28,0.66l131.9 0.1c1.22,0 1.94,-1.38 1.28,-2.4l-627.37 -911.59"/>
   <path class="fil1" d="M1053.81 0l0.6 0c582.03,0.17 1053.81,477.76 1053.81,1066.88 0,589.12 -471.78,1066.71 -1053.81,1066.88l-0.6 0c-582.03,-0.17 -1053.81,-477.76 -1053.81,-1066.88 0,-589.12 471.78,-1066.71 1053.81,-1066.88zm-117.82 1146.05c0.56,0.77 0.51,1.84 -0.15,2.55l-399.85 465.19c-1.17,1.33 -0.2,3.42 1.58,3.42l83.05 0.36c0.61,0 1.22,-0.26 1.58,-0.72l352.27 -410.01c0.92,-1.02 2.55,-0.92 3.32,0.2l281.88 409.35c0.36,0.56 1.02,0.92 1.74,0.92l299.59 0.15c1.68,0 2.65,-1.89 1.74,-3.27l-416.24 -604.7c-0.56,-0.77 -0.51,-1.84 0.15,-2.55l378.77 -441.25c1.17,-1.38 0.2,-3.47 -1.58,-3.47l-83.1 0.05c-0.61,0 -1.17,0.25 -1.58,0.71l-331.6 385.35c-0.92,1.02 -2.55,0.92 -3.32,-0.2l-265.34 -384.74c-0.36,-0.56 -1.02,-0.92 -1.74,-0.92l-299.13 -0.26c-1.69,0 -2.66,1.89 -1.74,3.27l399.7 580.56z"/>
   <path class="fil1" d="M803.06 633.34l627.37 911.59c0.66,1.02 -0.05,2.4 -1.28,2.4l-131.9 -0.1c-0.51,0 -0.97,-0.25 -1.28,-0.66l-627.32 -911.95c-0.66,-1.02 0.05,-2.4 1.28,-2.4l131.85 0.46c0.51,0 0.97,0.25 1.28,0.66z"/>
   <ellipse class="fil2" cx="1054.11" cy="1066.88" rx="1054.11" ry="1066.88"/>
  </g>
 </g>
</svg>
